<svg xmlns="http://www.w3.org/2000/svg" viewBox="0 0 41 17">
  <g fill="none" fill-rule="evenodd">
    <path d="M19.526 2.635v4.083h2.518c.6 0 1.096-.202 1.488-.605.403-.402.605-.882.605-1.437 0-.544-.202-1.018-.605-1.422-.392-.413-.888-.62-1.488-.62h-2.518zm0 5.52v4.736h-1.504V1.198h3.99c1.013 0 1.873.337 2.582 1.012.722.675 1.082 1.497 1.082 2.466 0 .991-.36 1.819-1.082 2.482-.697.665-1.559.996-2.583.996h-2.485v.001z" fill="#5F6368"/>
    <path d="M27.194 10.442c0 .392.166.718.499.98.332.26.722.391 1.168.391.63 0 1.174-.234 1.63-.701.456-.469.684-1.016.684-1.645-.547-.044-1.085-.066-1.612-.066-.892 0-1.556.14-1.992.418-.436.28-.377.926-.377 1.623zm1.615-5.958c1.037 0 1.858.285 2.464.855.605.57.908 1.345.908 2.324v4.707h-1.437v-1.06h-.065c-.58.867-1.353 1.301-2.32 1.301-.833 0-1.532-.249-2.096-.746-.564-.497-.846-1.126-.846-1.888 0-.798.298-1.428.895-1.888.596-.461 1.39-.692 2.382-.692.847 0 1.546.146 2.096.437v-.307c0-.453-.18-.84-.542-1.162-.36-.322-.793-.482-1.297-.482-.752 0-1.346.32-1.779.959l-1.323-.832c.645-.964 1.608-1.446 2.896-1.446h-.036z" fill="#5F6368"/>
    <path d="M38.827 4.844l-4.674 10.757h-1.552l1.738-3.762-3.078-6.995h1.634l2.14 5.167h.033l2.085-5.167h1.674z" fill="#5F6368"/>
    <path d="M13.535 7.977c0-.544-.048-1.067-.138-1.569H6.91v2.965h3.713c-.159.859-.647 1.589-1.381 2.076v1.729h2.234c1.307-1.206 2.06-2.98 2.06-5.201z" fill="#4285F4"/>
    <path d="M6.91 14.888c1.868 0 3.432-.621 4.576-1.68l-2.234-1.73c-.62.416-1.408.666-2.342.666-1.8 0-3.327-1.216-3.873-2.85H.716v1.78a6.903 6.903 0 006.193 3.814z" fill="#34A853"/>
    <path d="M3.037 9.293a4.15 4.15 0 01-.217-1.316c0-.456.08-.901.217-1.316V4.88H.716a6.9 6.9 0 000 6.196l2.321-1.783z" fill="#FBBC04"/>
    <path d="M6.91 3.81c1.016 0 1.927.349 2.644 1.034l1.98-1.981C10.337 1.6 8.777.866 6.909.866A6.903 6.903 0 00.716 4.68l2.32 1.781c.546-1.635 2.073-2.851 3.873-2.851z" fill="#EA4335"/>
  </g>
</svg>
